<?xml version="1.0" standalone="no"?>
<!DOCTYPE svg PUBLIC "-//W3C//DTD SVG 20010904//EN"
 "http://www.w3.org/TR/2001/REC-SVG-20010904/DTD/svg10.dtd">
<svg version="1.0" xmlns="http://www.w3.org/2000/svg"
 width="192.000000pt" height="300.000000pt" viewBox="0 0 192.000000 300.000000"
 preserveAspectRatio="xMidYMid meet">
<metadata>
Created by potrace 1.10, written by Peter Selinger 2001-2011
</metadata>
<g transform="translate(0.000000,300.000000) scale(0.100000,-0.100000)"
fill="#000000" stroke="none">
<path d="M912 2963 c-18 -15 -24 -36 -32 -113 -34 -312 -122 -501 -496 -1067
-218 -330 -248 -382 -298 -507 -57 -141 -79 -266 -73 -416 6 -147 22 -213 81
-335 133 -276 391 -458 716 -506 111 -16 311 -6 411 20 323 84 574 317 660
613 32 110 37 331 11 459 -32 154 -96 299 -204 465 -67 102 -90 118 -133 90
-32 -21 -32 -41 0 -167 71 -280 73 -582 6 -760 -24 -61 -101 -199 -113 -199
-4 0 4 26 18 58 68 154 104 409 85 605 -26 271 -124 622 -282 1017 -63 158
-74 180 -100 190 -24 10 -33 10 -52 -3 -22 -14 -25 -25 -31 -114 -17 -252 -55
-335 -274 -608 -287 -359 -422 -640 -422 -885 0 -95 7 -125 26 -109 11 9 14 7
14 -9 0 -12 13 -60 29 -107 l29 -87 -25 24 c-25 23 -103 146 -103 162 0 5 8 2
17 -5 15 -12 16 -12 10 4 -15 39 -36 145 -42 212 -6 56 -2 92 19 183 42 188
88 279 366 727 195 314 270 464 307 613 34 139 13 430 -39 540 -16 33 -56 40
-86 15z m61 -115 c55 -236 43 -399 -43 -601 -42 -98 -86 -173 -295 -512 -186
-300 -235 -390 -279 -509 -148 -395 -45 -698 313 -915 29 -18 56 -30 59 -27 3
3 3 7 1 9 -147 95 -203 164 -255 317 -14 42 -19 83 -19 170 1 139 30 252 104
400 84 168 146 259 330 490 46 58 102 132 124 165 84 123 137 298 137 452 0
55 -2 64 -16 59 -11 -4 -14 -1 -12 12 4 21 49 23 56 2 5 -13 3 -13 -11 -1 -10
7 -17 11 -17 9 0 -3 31 -84 69 -179 148 -372 240 -699 268 -945 15 -132 16
-169 5 -277 -14 -143 -39 -246 -86 -362 -52 -130 -157 -269 -246 -329 -55 -36
10 -13 99 36 72 40 117 74 181 138 168 166 230 335 230 622 0 194 -24 348 -85
543 -8 27 1 13 67 -95 142 -236 198 -409 198 -615 0 -194 -45 -335 -156 -492
-96 -135 -295 -266 -479 -314 -121 -32 -331 -37 -455 -11 -346 71 -607 320
-670 639 -24 121 -25 201 -5 318 34 195 89 307 327 666 227 343 294 453 368
604 95 192 160 419 160 556 0 27 4 49 8 49 5 0 16 -33 25 -72z m-320 -713 c-3
-9 -8 -14 -10 -11 -3 3 -2 9 2 15 9 16 15 13 8 -4z m374 -222 c-23 -45 -56
-90 -269 -365 -48 -62 -114 -158 -147 -213 -34 -54 -61 -95 -61 -89 0 33 166
275 305 444 73 88 170 228 180 260 4 12 9 19 12 17 2 -3 -7 -27 -20 -54z m594
-290 c13 -16 12 -17 -3 -4 -17 13 -22 21 -14 21 2 0 10 -8 17 -17z m-54 -15
c-3 -8 -6 -5 -6 6 -1 11 2 17 5 13 3 -3 4 -12 1 -19z m-1051 -449 c-9 -19 -15
-29 -16 -22 0 15 22 64 27 60 2 -2 -3 -19 -11 -38z m943 -641 c9 -2 -10 -25
-50 -62 -91 -83 -103 -85 -53 -9 24 37 47 75 50 86 5 16 8 17 22 4 10 -8 23
-16 31 -19z"/>
<path d="M955 1015 c-3 -11 -56 -120 -118 -242 -97 -194 -111 -230 -115 -283
-11 -149 92 -253 249 -252 71 0 122 19 171 65 47 43 63 85 62 164 0 72 0 73
-116 305 -64 128 -119 240 -121 248 -4 12 -6 10 -12 -5z m29 -103 c17 -32 16
-32 -3 -20 -17 10 -23 9 -42 -7 l-22 -20 22 43 c12 24 24 42 25 40 2 -1 11
-18 20 -36z m71 -212 c81 -161 88 -180 89 -237 1 -66 -14 -98 -65 -135 -57
-42 -175 -39 -236 8 -62 47 -79 125 -45 214 20 53 162 333 167 328 1 -1 42
-82 90 -178z"/>
<path d="M1836 1488 c3 -5 10 -6 15 -3 13 9 11 12 -6 12 -8 0 -12 -4 -9 -9z"/>
</g>
</svg>
